{
	"asset":{
		"generator":"Khronos glTF Blender I/O v3.5.30",
		"version":"2.0"
	},
	"scene":0,
	"scenes":[
		{
			"name":"Scene",
			"nodes":[
				0
			]
		}
	],
	"nodes":[
		{
			"mesh":0,
			"name":"Cube1-0",
			"rotation":[
				0.7071068286895752,
				0,
				0,
				0.7071068286895752
			],
			"scale":[
				0.009999999776482582,
				0.009999999776482582,
				0.009999999776482582
			]
		}
	],
	"materials":[
		{
			"doubleSided":true,
			"name":"default",
			"pbrMetallicRoughness":{
				"baseColorFactor":[
					0.7898539900779724,
					0.8133329749107361,
					0.6940439939498901,
					1
				],
				"metallicFactor":0,
				"roughnessFactor":0.5
			}
		}
	],
	"meshes":[
		{
			"name":"Cube1-0",
			"primitives":[
				{
					"attributes":{
						"POSITION":0,
						"TEXCOORD_0":1,
						"NORMAL":2
					},
					"indices":3,
					"material":0
				}
			]
		}
	],
	"accessors":[
		{
			"bufferView":0,
			"componentType":5126,
			"count":305,
			"max":[
				0.6536920070648193,
				1,
				0.2197120040655136
			],
			"min":[
				-1.4658479690551758,
				-1,
				-2.4131200313568115
			],
			"type":"VEC3"
		},
		{
			"bufferView":1,
			"componentType":5126,
			"count":305,
			"type":"VEC2"
		},
		{
			"bufferView":2,
			"componentType":5126,
			"count":305,
			"type":"VEC3"
		},
		{
			"bufferView":3,
			"componentType":5123,
			"count":1344,
			"type":"SCALAR"
		}
	],
	"bufferViews":[
		{
			"buffer":0,
			"byteLength":3660,
			"byteOffset":0,
			"target":34962
		},
		{
			"buffer":0,
			"byteLength":2440,
			"byteOffset":3660,
			"target":34962
		},
		{
			"buffer":0,
			"byteLength":3660,
			"byteOffset":6100,
			"target":34962
		},
		{
			"buffer":0,
			"byteLength":2688,
			"byteOffset":9760,
			"target":34963
		}
	],
	"buffers":[
		{
			"byteLength":12448,
			"uri":"cinemaChair.bin"
		}
	]
}
